<svg xmlns="http://www.w3.org/2000/svg" viewBox="275.26 252.2 82.8 20.9"><defs><style>.a{fill:#fff;stroke:rgba(0,0,0,0)}</style></defs><path class="a" d="M278.62 266.72h2.22v-13.68h-1.16a6.554 6.554 0 0 0-.9.07 2.576 2.576 0 0 0-1.01.39 3.47 3.47 0 0 0-.98 1.01 6.558 6.558 0 0 0-.81 1.91h-.22v-3.66h12.16v3.66h-.22a6.558 6.558 0 0 0-.81-1.91 3.47 3.47 0 0 0-.98-1.01 2.576 2.576 0 0 0-1.01-.39 6.554 6.554 0 0 0-.9-.07h-1.16v13.68h2.22v.28h-6.44zm7.8 0h1.54v-8.02h-1.54v-.28h3.22v2.02h.04a4.072 4.072 0 0 1 .26-.68 2.969 2.969 0 0 1 .5-.73 2.848 2.848 0 0 1 .77-.59 2.289 2.289 0 0 1 1.09-.24 1.969 1.969 0 0 1 .8.15 1.728 1.728 0 0 1 .56.38 1.4 1.4 0 0 1 .32.53 1.887 1.887 0 0 1 .1.6 1.041 1.041 0 0 1-.3.88 1.152 1.152 0 0 1-.7.22q-.88 0-.88-.56a.867.867 0 0 1 .04-.29q.04-.11.09-.22a1.8 1.8 0 0 0 .09-.25 1.536 1.536 0 0 0 .04-.4q0-.64-.7-.64a1.239 1.239 0 0 0-.68.24 2.507 2.507 0 0 0-.67.7 4.4 4.4 0 0 0-.52 1.11 4.845 4.845 0 0 0-.21 1.49v4.58h1.74v.28h-5zm9.46-12.96a1.022 1.022 0 0 1 .31-.75 1.022 1.022 0 0 1 .75-.31 1.022 1.022 0 0 1 .75.31 1.022 1.022 0 0 1 .31.75 1.022 1.022 0 0 1-.31.75 1.022 1.022 0 0 1-.75.31 1.022 1.022 0 0 1-.75-.31 1.022 1.022 0 0 1-.31-.75zm-1.3 12.96h1.54v-8.02h-1.54v-.28h3.26v8.3h1.54v.28h-4.8zm14.18-4.3a12.25 12.25 0 0 0-.1-1.65 4.2 4.2 0 0 0-.35-1.25 1.869 1.869 0 0 0-.7-.8 2.145 2.145 0 0 0-1.15-.28 2.545 2.545 0 0 0-1.22.26 2.366 2.366 0 0 0-.78.66 2.477 2.477 0 0 0-.35.6 3.872 3.872 0 0 0-.21.76 8.069 8.069 0 0 0-.11 1.01q-.03.57-.03 1.35a9.615 9.615 0 0 0 .1 1.36 4.213 4.213 0 0 0 .38 1.27 2.431 2.431 0 0 0 .79.93 2.3 2.3 0 0 0 1.35.36 2.316 2.316 0 0 0 1.3-.32 1.931 1.931 0 0 0 .72-.92 4.836 4.836 0 0 0 .3-1.45q.06-.85.06-1.89zm-8.26 9.9h1.54V258.7h-1.54v-.28h3.22v1.68h.04a3.057 3.057 0 0 1 .99-1.39 2.785 2.785 0 0 1 1.79-.55 3.653 3.653 0 0 1 1.62.37 4.631 4.631 0 0 1 1.34.98 4.621 4.621 0 0 1 .92 1.43 4.447 4.447 0 0 1 .34 1.72 4.458 4.458 0 0 1-.35 1.75 4.931 4.931 0 0 1-.95 1.47 4.656 4.656 0 0 1-1.39 1.02 3.8 3.8 0 0 1-1.67.38 2.6 2.6 0 0 1-1.15-.23 2.725 2.725 0 0 1-.77-.54 2.489 2.489 0 0 1-.46-.64 3.8 3.8 0 0 1-.22-.53h-.04v6.98h1.54v.28h-4.8zm13.14-10.34h3.72v1.32h-3.72zm9.18 4.74h2.22v-13.68h-1.16a6.554 6.554 0 0 0-.9.07 2.576 2.576 0 0 0-1.01.39 3.47 3.47 0 0 0-.98 1.01 6.558 6.558 0 0 0-.81 1.91h-.22v-3.66h12.16v3.66h-.22a6.558 6.558 0 0 0-.81-1.91 3.47 3.47 0 0 0-.98-1.01 2.576 2.576 0 0 0-1.01-.39 6.554 6.554 0 0 0-.9-.07h-1.16v13.68h2.22v.28h-6.44zm7.8 0h1.54v-8.02h-1.54v-.28h3.22v2.02h.04a4.072 4.072 0 0 1 .26-.68 2.969 2.969 0 0 1 .5-.73 2.848 2.848 0 0 1 .77-.59 2.289 2.289 0 0 1 1.09-.24 1.969 1.969 0 0 1 .8.15 1.728 1.728 0 0 1 .56.38 1.4 1.4 0 0 1 .32.53 1.887 1.887 0 0 1 .1.6 1.041 1.041 0 0 1-.3.88 1.152 1.152 0 0 1-.7.22q-.88 0-.88-.56a.867.867 0 0 1 .04-.29q.04-.11.09-.22a1.8 1.8 0 0 0 .09-.25 1.536 1.536 0 0 0 .04-.4q0-.64-.7-.64a1.239 1.239 0 0 0-.68.24 2.507 2.507 0 0 0-.67.7 4.4 4.4 0 0 0-.52 1.11 4.845 4.845 0 0 0-.21 1.49v4.58h1.74v.28h-5zm13.66-4.62h-.04q-.04.26-.66.52l-1.5.6a2.187 2.187 0 0 0-.98.73 1.944 1.944 0 0 0-.34 1.17 3.362 3.362 0 0 0 .06.62 1.589 1.589 0 0 0 .22.57 1.221 1.221 0 0 0 .45.41 1.545 1.545 0 0 0 .75.16 1.862 1.862 0 0 0 1.07-.28 1.832 1.832 0 0 0 .62-.7 2.954 2.954 0 0 0 .28-.91 6.342 6.342 0 0 0 .07-.89zm3.5 4.68a2.74 2.74 0 0 1-.62.35 2.29 2.29 0 0 1-.88.15 1.968 1.968 0 0 1-1.39-.41 2.177 2.177 0 0 1-.59-1.15h-.04q-.08.18-.22.45a1.784 1.784 0 0 1-.43.52 2.394 2.394 0 0 1-.77.42 3.707 3.707 0 0 1-1.22.17 3.863 3.863 0 0 1-1.34-.19 2.186 2.186 0 0 1-.78-.47 1.363 1.363 0 0 1-.37-.63 2.621 2.621 0 0 1-.09-.65 1.99 1.99 0 0 1 .28-1.12 2.074 2.074 0 0 1 .73-.67 4.83 4.83 0 0 1 1-.41q.55-.16 1.11-.34.66-.22 1.09-.38a1.932 1.932 0 0 0 .67-.39 1.2 1.2 0 0 0 .33-.58 3.973 3.973 0 0 0 .09-.95 5.553 5.553 0 0 0-.06-.86 1.823 1.823 0 0 0-.22-.65 1.022 1.022 0 0 0-.46-.41 1.914 1.914 0 0 0-.8-.14 2.3 2.3 0 0 0-1.09.23.787.787 0 0 0-.43.75 3.738 3.738 0 0 0 .06.67 3.038 3.038 0 0 1 .06.49.622.622 0 0 1-.2.47.811.811 0 0 1-.58.19q-.66 0-.82-.24a1.1 1.1 0 0 1-.16-.62 1.854 1.854 0 0 1 .2-.84 2.116 2.116 0 0 1 .59-.71 2.935 2.935 0 0 1 .98-.49 4.629 4.629 0 0 1 1.35-.18 4.463 4.463 0 0 1 1.54.23 2.664 2.664 0 0 1 1 .62 2.252 2.252 0 0 1 .54.88 3.3 3.3 0 0 1 .16 1.03v4.98a1.212 1.212 0 0 0 .18.78.664.664 0 0 0 .52.2 1.453 1.453 0 0 0 .46-.08 1.688 1.688 0 0 0 .46-.24zm.36-.06h1.06l2.74-3.68-2.98-4.34h-1.12v-.28h4.7v.28h-1.58l2.06 3 2.16-3h-1.48v-.28h2.94v.28h-1.06l-2.38 3.28 3.26 4.74h1.1v.28h-4.68v-.28h1.58l-2.34-3.4-2.52 3.4h1.48v.28h-2.94z"/></svg>